<?xml version="1.0" encoding="UTF-8"?>
<svg id="Layer_1" xmlns="http://www.w3.org/2000/svg" version="1.1" xmlns:xlink="http://www.w3.org/1999/xlink" viewBox="0 0 864 864">
  <!-- Generator: Adobe Illustrator 29.2.1, SVG Export Plug-In . SVG Version: 2.1.0 Build 116)  -->
  <defs>
    <style>
      .st0 {
        fill: url(#linear-gradient2);
      }

      .st1 {
        fill: url(#linear-gradient36);
      }

      .st2 {
        fill: url(#linear-gradient34);
      }

      .st3 {
        fill: url(#linear-gradient33);
      }

      .st4 {
        fill: url(#linear-gradient10);
      }

      .st5 {
        fill: url(#linear-gradient32);
      }

      .st6 {
        fill: url(#linear-gradient21);
      }

      .st7 {
        fill: url(#linear-gradient27);
      }

      .st8 {
        fill: url(#linear-gradient35);
      }

      .st9 {
        fill: url(#linear-gradient26);
      }

      .st10 {
        fill: url(#linear-gradient1);
      }

      .st11 {
        fill: url(#linear-gradient9);
      }

      .st12 {
        fill: url(#linear-gradient18);
      }

      .st13 {
        fill: url(#linear-gradient23);
      }

      .st14 {
        fill: url(#linear-gradient8);
      }

      .st15 {
        fill: url(#linear-gradient11);
      }

      .st16 {
        fill: url(#linear-gradient16);
      }

      .st17 {
        fill: url(#linear-gradient24);
      }

      .st18 {
        fill: url(#linear-gradient30);
      }

      .st19 {
        fill: url(#linear-gradient22);
      }

      .st20 {
        fill: url(#linear-gradient29);
      }

      .st21 {
        fill: url(#linear-gradient19);
      }

      .st22 {
        fill: url(#linear-gradient12);
      }

      .st23 {
        fill: url(#linear-gradient28);
      }

      .st24 {
        fill: url(#linear-gradient7);
      }

      .st25 {
        fill: url(#linear-gradient20);
      }

      .st26 {
        fill: url(#linear-gradient4);
      }

      .st27 {
        fill: url(#linear-gradient31);
      }

      .st28 {
        fill: url(#linear-gradient14);
      }

      .st29 {
        fill: url(#linear-gradient5);
      }

      .st30 {
        fill: url(#linear-gradient3);
      }

      .st31 {
        fill: url(#linear-gradient25);
      }

      .st32 {
        fill: url(#linear-gradient15);
      }

      .st33 {
        fill: url(#linear-gradient17);
      }

      .st34 {
        fill: url(#linear-gradient6);
      }

      .st35 {
        fill: url(#linear-gradient13);
      }

      .st36 {
        fill: url(#linear-gradient);
      }
    </style>
    <linearGradient id="linear-gradient" x1="83.82" y1="393.74" x2="118.15" y2="393.74" gradientUnits="userSpaceOnUse">
      <stop offset="0" stop-color="#25006d"/>
      <stop offset="1" stop-color="#ec008c"/>
    </linearGradient>
    <linearGradient id="linear-gradient1" x1="118.15" y1="395.12" x2="355.4" y2="395.12" xlink:href="#linear-gradient"/>
    <linearGradient id="linear-gradient2" x1="357.14" y1="412.42" x2="467.07" y2="412.42" xlink:href="#linear-gradient"/>
    <linearGradient id="linear-gradient3" x1="731.46" y1="398.96" x2="485.71" y2="398.96" xlink:href="#linear-gradient"/>
    <linearGradient id="linear-gradient4" x1="680.34" y1="406.81" x2="618.76" y2="406.81" xlink:href="#linear-gradient"/>
    <linearGradient id="linear-gradient5" x1="611.05" y1="374.78" x2="532.36" y2="374.78" xlink:href="#linear-gradient"/>
    <linearGradient id="linear-gradient6" x1="613.77" y1="420.83" x2="566.97" y2="420.83" xlink:href="#linear-gradient"/>
    <linearGradient id="linear-gradient7" x1="691.83" y1="404.72" x2="780.18" y2="404.72" xlink:href="#linear-gradient"/>
    <linearGradient id="linear-gradient8" x1="723.68" y1="422.59" x2="748.97" y2="422.59" xlink:href="#linear-gradient"/>
    <linearGradient id="linear-gradient9" x1="127.56" y1="541.11" x2="663.97" y2="541.11" xlink:href="#linear-gradient"/>
    <linearGradient id="linear-gradient10" x1="127.56" y1="541.11" x2="663.97" y2="541.11" xlink:href="#linear-gradient"/>
    <linearGradient id="linear-gradient11" x1="127.56" y1="541.11" x2="663.97" y2="541.11" xlink:href="#linear-gradient"/>
    <linearGradient id="linear-gradient12" x1="127.56" y1="541.11" x2="663.97" y2="541.11" xlink:href="#linear-gradient"/>
    <linearGradient id="linear-gradient13" x1="127.56" y1="541.11" x2="663.97" y2="541.11" xlink:href="#linear-gradient"/>
    <linearGradient id="linear-gradient14" x1="127.56" y1="541.11" x2="663.97" y2="541.11" xlink:href="#linear-gradient"/>
    <linearGradient id="linear-gradient15" x1="127.56" y1="541.11" x2="663.97" y2="541.11" xlink:href="#linear-gradient"/>
    <linearGradient id="linear-gradient16" x1="127.56" y1="541.11" x2="663.97" y2="541.11" xlink:href="#linear-gradient"/>
    <linearGradient id="linear-gradient17" x1="127.56" y1="541.11" x2="663.97" y2="541.11" xlink:href="#linear-gradient"/>
    <linearGradient id="linear-gradient18" x1="127.56" y1="541.11" x2="663.97" y2="541.11" xlink:href="#linear-gradient"/>
    <linearGradient id="linear-gradient19" x1="127.56" y1="541.11" x2="663.97" y2="541.11" xlink:href="#linear-gradient"/>
    <linearGradient id="linear-gradient20" x1="127.56" y1="541.11" x2="663.97" y2="541.11" xlink:href="#linear-gradient"/>
    <linearGradient id="linear-gradient21" x1="127.56" y1="541.11" x2="663.97" y2="541.11" xlink:href="#linear-gradient"/>
    <linearGradient id="linear-gradient22" x1="127.56" y1="541.11" x2="663.97" y2="541.11" xlink:href="#linear-gradient"/>
    <linearGradient id="linear-gradient23" x1="127.56" y1="541.11" x2="663.97" y2="541.11" xlink:href="#linear-gradient"/>
    <linearGradient id="linear-gradient24" x1="127.56" y1="541.11" x2="663.97" y2="541.11" xlink:href="#linear-gradient"/>
    <linearGradient id="linear-gradient25" x1="127.56" y1="541.11" x2="663.97" y2="541.11" xlink:href="#linear-gradient"/>
    <linearGradient id="linear-gradient26" x1="127.56" y1="541.11" x2="663.97" y2="541.11" xlink:href="#linear-gradient"/>
    <linearGradient id="linear-gradient27" x1="127.56" y1="541.11" x2="663.97" y2="541.11" xlink:href="#linear-gradient"/>
    <linearGradient id="linear-gradient28" x1="127.56" y1="541.11" x2="663.97" y2="541.11" xlink:href="#linear-gradient"/>
    <linearGradient id="linear-gradient29" x1="127.56" y1="541.11" x2="663.97" y2="541.11" xlink:href="#linear-gradient"/>
    <linearGradient id="linear-gradient30" x1="127.56" y1="541.11" x2="663.97" y2="541.11" xlink:href="#linear-gradient"/>
    <linearGradient id="linear-gradient31" x1="127.56" y1="541.11" x2="663.97" y2="541.11" xlink:href="#linear-gradient"/>
    <linearGradient id="linear-gradient32" x1="127.56" y1="541.11" x2="663.97" y2="541.11" xlink:href="#linear-gradient"/>
    <linearGradient id="linear-gradient33" x1="127.56" y1="541.11" x2="663.97" y2="541.11" xlink:href="#linear-gradient"/>
    <linearGradient id="linear-gradient34" x1="127.56" y1="541.11" x2="663.97" y2="541.11" xlink:href="#linear-gradient"/>
    <linearGradient id="linear-gradient35" x1="127.56" y1="541.11" x2="663.97" y2="541.11" xlink:href="#linear-gradient"/>
    <linearGradient id="linear-gradient36" x1="127.56" y1="541.11" x2="663.97" y2="541.11" xlink:href="#linear-gradient"/>
  </defs>
  <g>
    <g>
      <path class="st36" d="M83.82,347.49h17.82c4.35,0,8.25,1.74,11.73,4.77,3.47,3.48,4.78,7.39,4.78,11.74v114.23h-34.33v-130.74ZM83.82,309.26h17.82c4.35,0,8.25,1.74,11.73,4.78,3.47,3.48,4.78,7.39,4.78,11.72v10.44h-34.33v-26.94Z"/>
      <path class="st10" d="M328.9,437.85h24.76c-3.91,13.89-10.43,24.32-20.85,31.7-10,7.38-23.03,11.3-38.24,11.3-18.7,0-33.02-6.08-43.9-18.25-5.21-6.07-9.54-13.91-12.16-23.01-9.57,36.9-49.11,49.94-86.47,36.9-8.25-2.59-14.77-7.38-19.56-13.46-9.56-12.16-14.33-28.66-14.33-49.5s4.78-37.36,14.33-49.53c9.57-13.03,22.16-19.12,37.81-19.12,8.25,0,15.19,1.74,21.29,4.78,6.96,3.9,12.17,9.12,16.08,15.2v-56.04h16.52c4.77,0,8.69,1.74,11.73,5.21,3.47,3.48,5.21,7.39,5.21,11.72v52.57c2.16-5.64,5.19-10.87,9.12-15.2,10.43-12.16,25.21-18.24,43.87-18.24s34.78,5.64,45.64,17.38c10.43,12.16,15.64,29.1,15.64,50.81v5.22c0,1.74,0,2.6-.45,3.48h-84.73c0,9.99,2.61,17.82,7.4,22.59,3.91,5.21,10.41,7.81,19.12,7.81,5.21,0,9.98-.86,13.9-3.48,1.31,0,2.18-.86,3.03-1.74.45-.43,1.74-1.72,2.61-2.6,0-.87,1.31-2.17,3.48-3.91,2.17-1.74,5.2-2.59,9.12-2.59h0ZM219.39,396.57c-17.83-2.17-23.47-13.03-32.15-19.11-19.12-13.9-46.93-6.51-58.67,13.47-7.38,12.16-7.81,31.27-1.74,44.31,10.44,23.03,41.28,31.28,61.28,16.08,8.68-6.53,13.9-17.37,31.71-19.99l-.44-34.75ZM255.03,400.47l.44,27.8c0,2.62,1.74,4.35,4.33,4.35h0c2.6,0,4.35-1.73,4.35-4.35v-27.8c0-2.6-2.16-4.34-4.35-4.34h0c-2.59,0-4.77,1.74-4.77,4.34h0ZM240.26,397.45l.41,34.75c0,3.03,2.62,5.19,5.65,5.19h0c3.06,0,5.67-2.59,5.23-5.64v-34.3c0-3.49-2.6-5.65-5.65-5.65h0c-3.02,0-5.64,2.6-5.64,5.65h0ZM222.88,393.53l.44,42.58c0,3.91,3.03,6.94,6.93,6.94h0c3.93,0,6.96-3.03,6.96-6.94l-.41-42.58c0-3.91-3.07-6.95-6.97-6.95h0c-3.47,0-6.94,3.04-6.94,6.95h0ZM163.76,380.49c1.75,0,3.48,1.74,3.48,3.92s-1.28,3.91-3.48,3.91c-6.96,0-13.03,2.6-17.79,7.37h0c-4.35,4.78-6.96,10.87-6.96,17.83,0,2.16-1.74,3.9-3.48,3.9-2.16,0-3.92-1.74-3.92-3.9,0-8.7,3.47-16.96,9.12-23.04h0c6.1-6.08,13.91-9.56,23.03-10h0ZM270.22,399.61h49.99c-.88-8.69-3.06-15.2-6.97-19.55-4.34-4.77-10.43-6.95-18.24-6.95-6.97,0-13.04,2.18-17.38,6.95-4.79,4.35-7.4,10.86-7.4,19.55h0Z"/>
      <path class="st0" d="M435.34,412.21c-4.77,2.6-10.86,4.34-19.1,6.51-7.39,1.74-11.31,2.17-11.31,2.17-5.65,1.74-9.99,3.93-12.6,6.52-2.16,3.48-3.47,6.96-3.47,10.86,0,4.77,1.31,8.68,4.35,11.72,3.02,2.62,7.38,3.91,12.59,3.91,9.13,0,16.51-2.6,21.72-7.81,5.21-5.21,7.81-12.6,7.81-21.72v-12.16ZM443.18,472.15c-6.97,3.48-14.33,5.65-21.72,6.52-7.84.87-14.33,1.29-20.43,1.29-11.73,0-21.74-3.48-30.42-9.55-9.12-6.51-13.46-16.94-13.46-31.27s3.91-23.45,12.16-29.55c7.83-5.64,18.27-9.55,30.41-11.72,1.74,0,3.48,0,5.67-.42,2.59-.44,5.2-.88,7.81-1.32,14.33-2.17,21.72-6.07,21.72-12.6,0-5.21-2.6-8.24-7.81-9.55-4.79-1.3-9.57-2.17-13.91-2.17s-8.26.44-12.17,1.74c-3.5,1.3-6.08,3.91-7.81,7.82h-32.59c1.28-10.42,6.08-18.68,13.88-25.2,8.7-7.38,21.29-11.29,37.37-11.29,18.25,0,31.74,3.04,40.85,9.55,9.56,6.52,14.35,15.64,14.35,26.94v44.31c0,13.03-2.6,23.46-7.38,30.4-4.35,7.38-10,12.6-16.51,16.08h0Z"/>
    </g>
    <path class="st30" d="M656.8,492.02c-38.67-14.12-73.45-31.7-104.54-58.52-19.15-16.52-36.26-34.71-49.76-56.13-6.96-11.06-12.3-22.77-15.58-35.61-4.33-16.97,2.65-35.99,25.53-41.24,10.83-2.49,21-1.31,31.48.38,18.25,2.94,35.3,9.36,51.71,17.67,0,0,.02,0,.03.01,1.12.57.9,2.28-.31,2.61-.41.11-.8.15-1.14.04-9.64-2.97-19.02-7.13-28.84-9.05-9.82-1.93-20.14-2.81-30.12-2.16-16.35,1.06-23.93,10.48-23.92,26.73.01,12.58,5.11,23.39,11.12,33.96,9.17,16.12,21.46,29.92,34.61,42.61,23.01,22.22,48.68,41.05,77.65,55.13,17.93,8.72,36.58,15.53,56.35,17.31,14.42,1.3,29.39.32,37.1-15.88.21-.44.67-.76,1.21-1.03.95-.49,2.08.2,2.09,1.27,0,.61-.03,1.22-.17,1.8-4.16,16.89-12.72,24.59-29.96,26.66-3.81.46-7.73.07-11.6.07"/>
    <path class="st26" d="M648.3,358.77c7.74,0,15.48.15,23.21-.05,5.14-.14,6.85,2.32,6.56,7.05-.15,2.41.11,4.84,0,7.25-.31,6.8-.35,6.92-7.8,7.14-6.76.2-13.54.17-20.31.09-4.93-.06-6.87,2.41-6.98,7.12-.09,3.95.78,6.52,5.49,6.4,6.28-.16,12.57-.12,18.85.08,7.5.24,7.5.35,7.9,7.05.87,14.35-.32,15.65-14.99,15.58-2.85-.01-5.69-1.04-8.55-1.13-7.21-.23-8.43,1.04-8.68,8.21-.25,7.48.15,8.02,7.94,8.18,7.73.16,15.47.14,23.21.05,4.25-.05,6.27,1.8,6.01,6.07-.03.48-.04.97-.01,1.45.69,14.89.16,15.47-14.76,15.52-13.06.05-26.11-.01-39.17.1-4.42.04-7.49-.83-7.47-6.25.12-28.04.13-56.09.07-84.13,0-4.47,2.24-5.84,6.26-5.8,7.74.07,15.47.02,23.21.02v.02Z"/>
    <path class="st29" d="M598.87,391.43c-5.23-.06-10.2.55-14.45-4.42-9.06-10.6-25.17-8.97-34.31,1.72-4.97,5.81-5.42,5.43-10.21-.58-11.4-14.32-10.37-18.58,6.41-26.24,18.26-8.34,35.63-6.86,51.61,5.41,3.69,2.83,6.93,6.71,9.26,10.75,6.64,11.47,5.27,13.43-8.32,13.36Z"/>
    <path class="st34" d="M591.57,399.53c3.37,0,6.74-.02,10.11,0,12.44.09,12.4.1,11.96,13.07-.34,9.88-3.14,18.9-9.17,26.8-1.88,2.47-3.92,3.97-7.07,1.37-4.07-3.37-8.52-6.26-12.56-9.65-1.92-1.61-2.77-3.47.18-5.7,2.49-1.88,1.97-4.2-1.59-4.57-2.38-.25-4.82.04-7.21-.2-6.75-.69-8.37-2.33-8.94-8.72-1-11.24-.13-12.22,11.29-12.38,4.33-.06,8.67,0,13,0v-.02Z"/>
    <g>
      <path class="st24" d="M779.71,453.9h-17.68c-.09-2.01-.25-3.98-.25-5.95-.03-12.15-.42-24.34.07-36.46.82-20.65-14.52-34.83-27.5-33.11-15.06,2-24.27,16.58-23.99,37,.17,12.71.03,25.44.03,38.52h-18.54c.58-19.38.19-38.58,2.03-57.38,1.49-15.27,9.57-25.86,19.45-33.19,19.66-14.57,45.41-8.16,58.81,14.43,4.91,8.28,7.86,17.63,7.97,28.31.15,14.62.06,29.25.04,43.88,0,1.19-.25,2.39-.43,3.94Z"/>
      <path class="st14" d="M748.97,422.24c.09,8.74-5.43,15.8-12.48,15.94-6.93.14-12.78-6.98-12.81-15.61-.03-8.39,5.47-15.34,12.32-15.57,7.02-.24,12.88,6.64,12.97,15.24Z"/>
    </g>
  </g>
  <g>
    <path class="st11" d="M127.56,532.85c1-3.64,2.86-8.32,4.07-10.31l2.43-.26c-.95,2.56-2.08,7.02-2.56,10.14l-3.94.43ZM134.02,532.85c.95-3.64,2.86-8.32,4.03-10.31l2.43-.26c-.95,2.56-2.08,7.02-2.56,10.14l-3.9.43Z"/>
    <path class="st4" d="M166.24,550.66c-1.69.61-5.02,1.6-8.97,1.6-4.42,0-8.06-1.13-10.92-3.86-2.51-2.43-4.07-6.33-4.07-10.87.04-8.71,6.02-15.08,15.81-15.08,3.38,0,6.02.74,7.28,1.34l-.91,3.08c-1.56-.69-3.51-1.26-6.45-1.26-7.1,0-11.74,4.42-11.74,11.74s4.46,11.78,11.26,11.78c2.47,0,4.16-.35,5.02-.78v-8.71h-5.93v-3.03h9.62v14.04Z"/>
    <path class="st15" d="M174.21,542.17c.09,5.16,3.38,7.28,7.19,7.28,2.73,0,4.38-.48,5.8-1.08l.65,2.73c-1.34.61-3.64,1.3-6.97,1.3-6.45,0-10.31-4.25-10.31-10.57s3.73-11.31,9.83-11.31c6.84,0,8.66,6.02,8.66,9.88,0,.78-.09,1.39-.13,1.78h-14.73ZM185.39,539.44c.04-2.43-1-6.19-5.29-6.19-3.86,0-5.54,3.55-5.85,6.19h11.13Z"/>
    <path class="st22" d="M193.79,536.67c0-2.17-.04-3.94-.17-5.67h3.38l.22,3.47h.09c1.04-1.99,3.47-3.94,6.93-3.94,2.9,0,7.41,1.73,7.41,8.92v12.52h-3.81v-12.09c0-3.38-1.26-6.2-4.85-6.2-2.51,0-4.46,1.78-5.11,3.9-.17.48-.26,1.13-.26,1.78v12.61h-3.81v-15.29Z"/>
    <path class="st35" d="M219.95,542.17c.09,5.16,3.38,7.28,7.19,7.28,2.73,0,4.38-.48,5.8-1.08l.65,2.73c-1.34.61-3.64,1.3-6.97,1.3-6.45,0-10.31-4.25-10.31-10.57s3.73-11.31,9.83-11.31c6.84,0,8.66,6.02,8.66,9.88,0,.78-.09,1.39-.13,1.78h-14.73ZM231.13,539.44c.04-2.43-1-6.19-5.29-6.19-3.86,0-5.54,3.55-5.85,6.19h11.13Z"/>
    <path class="st28" d="M239.53,537.53c0-2.47-.04-4.59-.17-6.54h3.34l.13,4.12h.17c.95-2.82,3.25-4.59,5.8-4.59.43,0,.74.04,1.08.13v3.6c-.39-.09-.78-.13-1.3-.13-2.69,0-4.59,2.04-5.11,4.9-.09.52-.17,1.13-.17,1.78v11.18h-3.77v-14.43Z"/>
    <path class="st32" d="M265.09,551.96l-.3-2.64h-.13c-1.17,1.65-3.42,3.12-6.41,3.12-4.25,0-6.41-2.99-6.41-6.02,0-5.07,4.51-7.84,12.61-7.8v-.43c0-1.73-.48-4.85-4.77-4.85-1.95,0-3.99.61-5.46,1.56l-.87-2.51c1.73-1.13,4.25-1.86,6.89-1.86,6.41,0,7.97,4.38,7.97,8.58v7.84c0,1.82.09,3.6.35,5.03h-3.47ZM264.52,541.26c-4.16-.09-8.88.65-8.88,4.72,0,2.47,1.65,3.64,3.6,3.64,2.73,0,4.46-1.73,5.07-3.51.13-.39.22-.82.22-1.21v-3.64Z"/>
    <path class="st16" d="M278.77,524.97v6.02h5.46v2.9h-5.46v11.31c0,2.6.74,4.07,2.86,4.07,1,0,1.73-.13,2.21-.26l.17,2.86c-.74.3-1.91.52-3.38.52-1.78,0-3.21-.56-4.12-1.6-1.08-1.13-1.47-2.99-1.47-5.46v-11.44h-3.25v-2.9h3.25v-5.03l3.73-1Z"/>
    <path class="st33" d="M292.76,525.1c.04,1.3-.91,2.34-2.43,2.34-1.34,0-2.3-1.04-2.3-2.34s1-2.38,2.38-2.38,2.34,1.04,2.34,2.38ZM288.52,551.96v-20.97h3.81v20.97h-3.81Z"/>
    <path class="st12" d="M298.65,536.67c0-2.17-.04-3.94-.17-5.67h3.38l.22,3.47h.09c1.04-1.99,3.47-3.94,6.93-3.94,2.9,0,7.41,1.73,7.41,8.92v12.52h-3.81v-12.09c0-3.38-1.26-6.2-4.85-6.2-2.51,0-4.46,1.78-5.11,3.9-.17.48-.26,1.13-.26,1.78v12.61h-3.81v-15.29Z"/>
    <path class="st21" d="M340.76,530.99c-.09,1.52-.17,3.21-.17,5.76v12.17c0,4.81-.95,7.75-2.99,9.57-2.04,1.91-4.98,2.51-7.62,2.51s-5.28-.61-6.97-1.73l.95-2.9c1.39.87,3.55,1.65,6.15,1.65,3.9,0,6.76-2.04,6.76-7.32v-2.34h-.09c-1.17,1.95-3.42,3.51-6.67,3.51-5.2,0-8.92-4.42-8.92-10.22,0-7.1,4.64-11.13,9.44-11.13,3.64,0,5.63,1.91,6.54,3.64h.09l.17-3.16h3.34ZM336.82,539.27c0-.65-.04-1.21-.22-1.73-.69-2.21-2.56-4.03-5.33-4.03-3.64,0-6.24,3.08-6.24,7.93,0,4.12,2.08,7.54,6.19,7.54,2.34,0,4.46-1.47,5.29-3.9.22-.65.3-1.39.3-2.04v-3.77Z"/>
    <path class="st25" d="M360.33,525.1c.04,1.3-.91,2.34-2.43,2.34-1.34,0-2.3-1.04-2.3-2.34s1-2.38,2.38-2.38,2.34,1.04,2.34,2.38ZM356.09,551.96v-20.97h3.81v20.97h-3.81Z"/>
    <path class="st6" d="M366.22,536.67c0-2.17-.04-3.94-.17-5.67h3.38l.22,3.47h.09c1.04-1.99,3.47-3.94,6.93-3.94,2.9,0,7.41,1.73,7.41,8.92v12.52h-3.81v-12.09c0-3.38-1.26-6.2-4.85-6.2-2.51,0-4.46,1.78-5.11,3.9-.17.48-.26,1.13-.26,1.78v12.61h-3.81v-15.29Z"/>
    <path class="st19" d="M390.26,536.67c0-2.17-.04-3.94-.17-5.67h3.38l.22,3.47h.09c1.04-1.99,3.47-3.94,6.93-3.94,2.9,0,7.41,1.73,7.41,8.92v12.52h-3.81v-12.09c0-3.38-1.26-6.2-4.85-6.2-2.51,0-4.46,1.78-5.11,3.9-.17.48-.26,1.13-.26,1.78v12.61h-3.81v-15.29Z"/>
    <path class="st13" d="M433.28,541.3c0,7.75-5.37,11.13-10.44,11.13-5.67,0-10.05-4.16-10.05-10.79,0-7.02,4.59-11.13,10.4-11.13s10.09,4.38,10.09,10.79ZM416.64,541.52c0,4.59,2.64,8.06,6.37,8.06s6.37-3.42,6.37-8.14c0-3.55-1.78-8.06-6.28-8.06s-6.45,4.16-6.45,8.14Z"/>
    <path class="st17" d="M439.25,530.99l4.12,11.78c.69,1.91,1.26,3.64,1.69,5.37h.13c.48-1.73,1.08-3.46,1.78-5.37l4.07-11.78h3.99l-8.23,20.97h-3.64l-7.97-20.97h4.07Z"/>
    <path class="st31" d="M470.05,551.96l-.3-2.64h-.13c-1.17,1.65-3.42,3.12-6.41,3.12-4.25,0-6.41-2.99-6.41-6.02,0-5.07,4.5-7.84,12.61-7.8v-.43c0-1.73-.48-4.85-4.76-4.85-1.95,0-3.99.61-5.46,1.56l-.87-2.51c1.73-1.13,4.25-1.86,6.89-1.86,6.41,0,7.97,4.38,7.97,8.58v7.84c0,1.82.09,3.6.35,5.03h-3.46ZM469.49,541.26c-4.16-.09-8.88.65-8.88,4.72,0,2.47,1.65,3.64,3.6,3.64,2.73,0,4.46-1.73,5.07-3.51.13-.39.22-.82.22-1.21v-3.64Z"/>
    <path class="st9" d="M483.74,524.97v6.02h5.46v2.9h-5.46v11.31c0,2.6.74,4.07,2.86,4.07,1,0,1.73-.13,2.21-.26l.17,2.86c-.74.3-1.91.52-3.38.52-1.78,0-3.21-.56-4.12-1.6-1.08-1.13-1.47-2.99-1.47-5.46v-11.44h-3.25v-2.9h3.25v-5.03l3.73-1Z"/>
    <path class="st7" d="M497.73,525.1c.04,1.3-.91,2.34-2.43,2.34-1.34,0-2.3-1.04-2.3-2.34s1-2.38,2.38-2.38,2.34,1.04,2.34,2.38ZM493.48,551.96v-20.97h3.81v20.97h-3.81Z"/>
    <path class="st23" d="M505.09,530.99l4.12,11.78c.69,1.91,1.26,3.64,1.69,5.37h.13c.48-1.73,1.08-3.46,1.78-5.37l4.07-11.78h3.99l-8.23,20.97h-3.64l-7.97-20.97h4.07Z"/>
    <path class="st20" d="M526.14,542.17c.09,5.16,3.38,7.28,7.19,7.28,2.73,0,4.38-.48,5.8-1.08l.65,2.73c-1.34.61-3.64,1.3-6.97,1.3-6.45,0-10.31-4.25-10.31-10.57s3.73-11.31,9.83-11.31c6.84,0,8.66,6.02,8.66,9.88,0,.78-.09,1.39-.13,1.78h-14.73ZM537.32,539.44c.04-2.43-1-6.19-5.29-6.19-3.86,0-5.54,3.55-5.85,6.19h11.13Z"/>
    <path class="st18" d="M559.15,525.1c.04,1.3-.91,2.34-2.43,2.34-1.34,0-2.3-1.04-2.3-2.34s1-2.38,2.38-2.38,2.34,1.04,2.34,2.38ZM554.9,551.96v-20.97h3.81v20.97h-3.81Z"/>
    <path class="st27" d="M583.14,521.2v25.34c0,1.86.04,3.99.17,5.42h-3.42l-.17-3.64h-.09c-1.17,2.34-3.73,4.12-7.15,4.12-5.07,0-8.97-4.29-8.97-10.66-.04-6.97,4.29-11.26,9.4-11.26,3.21,0,5.37,1.52,6.32,3.21h.09v-12.52h3.81ZM579.33,539.53c0-.48-.04-1.13-.17-1.6-.56-2.43-2.64-4.42-5.5-4.42-3.94,0-6.28,3.47-6.28,8.1,0,4.25,2.08,7.75,6.19,7.75,2.56,0,4.9-1.69,5.59-4.55.13-.52.17-1.04.17-1.65v-3.64Z"/>
    <path class="st5" d="M591.59,542.17c.09,5.16,3.38,7.28,7.19,7.28,2.73,0,4.38-.48,5.8-1.08l.65,2.73c-1.34.61-3.64,1.3-6.97,1.3-6.45,0-10.31-4.25-10.31-10.57s3.73-11.31,9.83-11.31c6.84,0,8.66,6.02,8.66,9.88,0,.78-.09,1.39-.13,1.78h-14.73ZM602.76,539.44c.04-2.43-1-6.19-5.29-6.19-3.86,0-5.54,3.55-5.85,6.19h11.13Z"/>
    <path class="st3" d="M622.78,551.96l-.3-2.64h-.13c-1.17,1.65-3.42,3.12-6.41,3.12-4.25,0-6.41-2.99-6.41-6.02,0-5.07,4.5-7.84,12.61-7.8v-.43c0-1.73-.48-4.85-4.76-4.85-1.95,0-3.99.61-5.46,1.56l-.87-2.51c1.73-1.13,4.25-1.86,6.89-1.86,6.41,0,7.97,4.38,7.97,8.58v7.84c0,1.82.09,3.6.35,5.03h-3.46ZM622.21,541.26c-4.16-.09-8.88.65-8.88,4.72,0,2.47,1.65,3.64,3.6,3.64,2.73,0,4.46-1.73,5.07-3.51.13-.39.22-.82.22-1.21v-3.64Z"/>
    <path class="st2" d="M631.52,548.06c1.13.74,3.12,1.52,5.03,1.52,2.77,0,4.07-1.39,4.07-3.12,0-1.82-1.08-2.82-3.9-3.86-3.77-1.34-5.54-3.42-5.54-5.93,0-3.38,2.73-6.15,7.23-6.15,2.12,0,3.99.61,5.16,1.3l-.95,2.77c-.82-.52-2.34-1.21-4.29-1.21-2.25,0-3.51,1.3-3.51,2.86,0,1.73,1.26,2.51,3.99,3.55,3.64,1.39,5.5,3.21,5.5,6.32,0,3.68-2.86,6.28-7.84,6.28-2.3,0-4.42-.56-5.89-1.43l.95-2.9Z"/>
    <path class="st8" d="M647.81,549.71c0-1.6,1.08-2.73,2.6-2.73s2.56,1.13,2.56,2.73-1,2.73-2.6,2.73c-1.52,0-2.56-1.17-2.56-2.73Z"/>
    <path class="st1" d="M657.56,522.28c-1,3.64-2.86,8.27-4.03,10.27l-2.43.3c.91-2.56,2.08-7.06,2.56-10.18l3.9-.39ZM663.97,522.28c-1,3.64-2.86,8.27-4.03,10.27l-2.43.3c.95-2.56,2.08-7.06,2.56-10.18l3.9-.39Z"/>
  </g>
</svg>