<svg width="45" height="45" viewBox="0 0 45 45" fill="none" xmlns="http://www.w3.org/2000/svg">
<path d="M40.4681 0H4.53195C2.02902 0 0 2.02902 0 4.53195V40.4681C0 42.971 2.02902 45 4.53195 45H40.4681C42.971 45 45 42.971 45 40.4681V4.53195C45 2.02902 42.971 0 40.4681 0Z" fill="#F94D00"/>
<path d="M25.9178 21.1728C25.9178 19.3412 24.433 17.8564 22.6015 17.8564C20.7699 17.8564 19.2852 19.3412 19.2852 21.1728V33.1116C19.2852 34.9432 20.7699 36.4279 22.6015 36.4279C24.433 36.4279 25.9178 34.9432 25.9178 33.1116V21.1728Z" fill="white"/>
<path d="M25.9178 11.8876C25.9178 10.0561 24.433 8.57129 22.6015 8.57129C20.7699 8.57129 19.2852 10.0561 19.2852 11.8876V11.8876C19.2852 13.7192 20.7699 15.2039 22.6015 15.2039C24.433 15.2039 25.9178 13.7192 25.9178 11.8876V11.8876Z" fill="white"/>
</svg>
